# xmcd
#
# Track frame offsets: 
#        151
#        15176
#        27105
#        42874
#        55011
#        69046
#        84211
#        99206
#        114159
#        129798
#        142815
#        155838
#
# Disc length: 2459 seconds
#
# Revision: 0
# Processed by: cddbd v1.5.2PL0 Copyright (c) Steve Scherf et al.
# Submitted via: ExactAudioCopy v0.95a5
#
DISCID=7609990c
DTITLE=Julie Black - They Call Me Angel for Blues
DYEAR=2007
DGENRE=Blues
TTITLE0=1- Bigger Fool
TTITLE1=2- Feelin' Strange
TTITLE2=3- Call the Cards
TTITLE3=4- My Doggie Don't
TTITLE4=5- Hurt My Baby
TTITLE5=6- Blues Like Me
TTITLE6=7- Spreadin' the Blues
TTITLE7=8- Love this Mama
TTITLE8=9- Devil's Child
TTITLE9=10- Broken Hearted Baby
TTITLE10=11- Go and Get Her
TTITLE11=12- Lean In On Me
EXTD=
EXTT0=
EXTT1=
EXTT2=
EXTT3=
EXTT4=
EXTT5=
EXTT6=
EXTT7=
EXTT8=
EXTT9=
EXTT10=
EXTT11=
PLAYORDER=
